# xmcd CD database file
#
# Track frame offsets:
#	150
#	21260
#	42319
#	59388
#	76393
#	94703
#	112905
#	134080
#	155049
#	175184
#	193039
#	214187
#
# Disc length: 3201 seconds
#
# Revision: 0
# Processed by: cddbd v1.4PL0 Copyright (c) Steve Scherf et al.
# Submitted via: CDex 1.50
#
DISCID=a70c7f0c
DTITLE=Denis à Maurice - Profitons de la vie
DYEAR=2001
DGENRE=Country
TTITLE0=L'histoire des Daltons
TTITLE1=La Quatre Roues
TTITLE2=La Frontière
TTITLE3=Un don du bon Dieu
TTITLE4=Viens donc Trinquer
TTITLE5=Racines Acadiennes
TTITLE6=Profitons de la vie
TTITLE7=Le Spectacle
TTITLE8=Tes Îles de la Madeleine
TTITLE9=Faut Dire Oui
TTITLE10=Les Retrouvailles
TTITLE11=Sur le bord de la grève
EXTD=YEAR: 2001
EXTT0=
EXTT1=
EXTT2=
EXTT3=
EXTT4=
EXTT5=
EXTT6=
EXTT7=
EXTT8=
EXTT9=
EXTT10=
EXTT11=
PLAYORDER=
